<svg width="140" height="140" viewBox="0 0 140 140" fill="none" xmlns="http://www.w3.org/2000/svg">
<rect width="140" height="140" fill="white"/>
<path fill-rule="evenodd" clip-rule="evenodd" d="M87 104V109L91.5 104.5L96 109V99H54.5V92H94.5C109 71 117.5 82.5 106.624 99H99V104H122V99H110.5C124.5 81 110.663 72.5 103 77.5L94.5 82.5V54C100.14 52.0112 100.851 46 100.851 43C100.851 38.9892 96 33.5 91.5 33.5C84 33.5 81.541 35.8091 78.5 42H63.5C59.8162 35.136 57 33.5 52.5 33.5C48 33.5 42.8662 36.455 42 43C41.3075 48.233 43.9062 50.3164 47.881 53.503C48.0839 53.6656 48.2903 53.8311 48.5 54V82.5C43.5928 78.2977 40.857 76 34 76C26.5 76 23.9599 86.5388 31.5 99H21.5V104.5H43V99C18.5 87 35.5 73.5 47.6188 91V98C49.0447 102.168 50.4721 103.597 54.5 104H87ZM90 55.5C83.0936 54.2081 80.0978 52.6097 78.5 46H63.5C61.1498 52.2912 58.4785 53.8249 53 55.5V87.5H90V55.5ZM58 57.5V61.5H78.5V57.5H58ZM58 67.5V71.5H84.5V67.5H58ZM58 77.5V82H84.5V77.5H58ZM83 44C84.8396 40.3602 86.5 38 90 38C93.5 38 96 41 96 44C96 47.5 94 51 90 51C86 51 83 48.5 83 44ZM88.5 44C88.5 43.2425 89 42.5 90 42.5C91 42.5 91.5581 43.0692 91.5 44C91.4575 44.7205 90.5 45.5 90 45.5C89.5 45.5 88.5 45 88.5 44ZM46.5 44C46.5 40.5 49.5 38 53 38C57 38 60 40.5 60 44C60 47.5 56.8221 51 53 51C49 51 46.5 48 46.5 44ZM53 42.5C51.9934 42.5 51.5 43 51.5 44C51.5 45 52 45.5 53 45.5C54 45.5 54.5 45 54.5 44C54.5 43 54 42.5 53 42.5Z" fill="#067916" stroke="#067916"/>
</svg>
